<svg version="1.0" xmlns="http://www.w3.org/2000/svg" width="341.333" height="341.333" viewBox="0 0 256 256"><path d="M115.8.5c-.2.2-2.7.6-5.7 1-44.3 5.6-84.9 37.7-101.2 80-1.7 4.4-3.2 8.7-3.4 9.5-.2.8-.8 3.5-1.5 5.9-2.6 9.8-3.7 19.7-3.5 32.3.1 7.3.5 14.9.9 16.8.3 1.9.8 4.6 1 6 2.6 16.3 11.8 37 23.4 52.7 19.7 26.5 51.9 45.6 84.2 50 7 .9 29 1 35.5 0 55.2-7.8 99.2-50.6 108.6-105.6 1.7-9.6 1.8-30.3.3-39.6-1.9-11.7-2.2-13.1-5.6-23-7.8-22.8-23.9-45.6-41.8-58.9-3-2.2-5.7-4.3-6-4.6-.3-.3-3.6-2.4-7.5-4.7C172.7 6.2 154.4 1 130.3.5c-7.8-.2-14.3-.2-14.5 0zm25.7 31.9c13 1.6 27.8 7 40.6 14.9 1.3.8.9 1.6-2.8 5.3-2.3 2.4-4.3 4.9-4.3 5.7 0 .7-2.2 3.4-4.9 6.1l-4.8 4.7-4.9-.8c-2.7-.5-18.2-.8-34.4-.8-30.7.2-33.2.5-42.1 5L81 74l1-2.5c2.6-6.9.3-15.5-5.6-20.3L73 48.4l7.3-4.1c12.1-6.7 24-10.6 36.1-11.9 3.4-.4 6.2-.7 6.3-.8.5-.5 12.9.1 18.8.8zm-88.3 67.9c-.1 27.2.7 31.6 6.4 36.7 3.3 2.8 3.7 3.7 4 8.8.3 6.9 2 15.5 3.4 18.3 1 1.8.1 3.1-8 11.4-9.3 9.4-11.3 10.4-12.6 6.2-.4-1.2-1-2.4-1.4-2.7-2.9-2-11.1-23.7-12.7-33.7-1.6-9.9-.7-33.5 1.6-39.5.5-1.3.9-2.8 1-3.3.6-4.9 5.2-15.5 10.8-24.8l3.5-5.7 2 2.5c1.9 2.4 2 4 2 25.8zm157.2-24.5c11.2 19.3 14.9 31.7 15 51.2.1 13.4-.4 18.2-2.4 26.3-2 7.5-6 17.3-9.5 23.2-1.9 3.2-3.5 6-3.5 6.2 0 1.2-6.8 9.3-12.7 15.1-22.5 22.2-52.2 32.1-82.8 27.6-14.8-2.2-26.3-6.6-39.7-15l-3.7-2.4 6.3-6.2c9.8-9.8 8.7-9.4 14.3-5.5 11.1 7.9 24.3 11.8 38.7 11.3 11.7-.4 17.2-1.7 27.3-6.7 20.5-10.1 34.7-31.7 35.6-53.9.2-5.9.5-6.7 3.6-9.5 6.5-5.7 7-8 7.1-35.8 0-21.9.3-25.2 1.8-27.2 1.7-2.4 2.6-2.2 4.6 1.3z"/></svg>