<svg xmlns="http://www.w3.org/2000/svg" width="1920" height="1080" preserveAspectRatio="xMidYMid" style="margin:auto;background:0 0;display:block;z-index:1;position:relative">
  <g>
    <defs>
      <linearGradient id="a" x1="935" x2="1920" y1="0" y2="0" gradientUnits="userSpaceOnUse">
        <stop offset="0" stop-color="#99b5ff"/>
        <stop offset="1" stop-color="#d1caf5"/>
      </linearGradient>
      <mask id="b">
        <path fill="#fff" d="M2220-.5H951.286a24.5 24.5 0 0 1 0 50H2220">
          <animateTransform attributeName="transform" begin="0s" calcMode="spline" dur="3.3333333333333335s" keySplines="0.5 0 0.5 1;0.5 0 0.5 1" keyTimes="0;0.5;1" repeatCount="indefinite" type="translate" values="43.0472572043184;0;43.0472572043184"/>
        </path>
        <path d="M1984.947-.5h15.947a24.5 24.5 0 0 1 0 50h-15.947a24.5 24.5 0 0 1 0-50">
          <animateTransform attributeName="transform" begin="0s" dur="10s" keyTimes="0;1" repeatCount="indefinite" type="translate" values="0;-1718.0508067070227"/>
          <animate attributeName="opacity" begin="0s" dur="10s" keyTimes="0;0.3;1" repeatCount="indefinite" values="1;1;0"/>
        </path>
        <path fill="#fff" d="M2220 48.5H879.14a24.5 24.5 0 0 0 0 50H2220">
          <animateTransform attributeName="transform" begin="-1.6666666666666665s" calcMode="spline" dur="10s" keySplines="0.5 0 0.5 1;0.5 0 0.5 1" keyTimes="0;0.5;1" repeatCount="indefinite" type="translate" values="-30.730158910903242;0;-30.730158910903242"/>
        </path>
        <path fill="#fff" d="M1021.91 48.5h19.345a24.5 24.5 0 0 1 0 50h-19.345a24.5 24.5 0 0 1 0-50">
          <animateTransform attributeName="transform" begin="-1.6666666666666665s" dur="10s" keyTimes="0;1" repeatCount="indefinite" type="translate" values="0;0"/>
          <animate attributeName="opacity" begin="-1.6666666666666665s" dur="10s" keyTimes="0;0.3;1" repeatCount="indefinite" values="1;1;0"/>
        </path>
        <path fill="#fff" d="M2220 97.5H951.984a24.5 24.5 0 0 1 0 50H2220">
          <animateTransform attributeName="transform" begin="-3.333333333333333s" calcMode="spline" dur="10s" keySplines="0.5 0 0.5 1;0.5 0 0.5 1" keyTimes="0;0.5;1" repeatCount="indefinite" type="translate" values="30.540572046881586;0;30.540572046881586"/>
        </path>
        <path d="M2003.765 97.5h34.765a24.5 24.5 0 0 1 0 50h-34.765a24.5 24.5 0 0 1 0-50">
          <animateTransform attributeName="transform" begin="-3.333333333333333s" dur="10s" keyTimes="0;1" repeatCount="indefinite" type="translate" values="0;-1752.0021514624111"/>
          <animate attributeName="opacity" begin="-3.333333333333333s" dur="10s" keyTimes="0;0.3;1" repeatCount="indefinite" values="1;1;0"/>
        </path>
        <path fill="#fff" d="M2220 146.5H907.807a24.5 24.5 0 0 0 0 50H2220">
          <animateTransform attributeName="transform" begin="-5s" calcMode="spline" dur="5s" keySplines="0.5 0 0.5 1;0.5 0 0.5 1" keyTimes="0;0.5;1" repeatCount="indefinite" type="translate" values="-35.67635745698866;0;-35.67635745698866"/>
        </path>
        <path fill="#fff" d="M982.277 146.5h22.903a24.5 24.5 0 0 1 0 50h-22.903a24.5 24.5 0 0 1 0-50">
          <animateTransform attributeName="transform" begin="-5s" dur="5s" keyTimes="0;1" repeatCount="indefinite" type="translate" values="0;0"/>
          <animate attributeName="opacity" begin="-5s" dur="5s" keyTimes="0;0.3;1" repeatCount="indefinite" values="1;1;0"/>
        </path>
        <path fill="#fff" d="M2220 195.5H932.989a24.5 24.5 0 0 1 0 50H2220">
          <animateTransform attributeName="transform" begin="-6.666666666666666s" calcMode="spline" dur="3.3333333333333335s" keySplines="0.5 0 0.5 1;0.5 0 0.5 1" keyTimes="0;0.5;1" repeatCount="indefinite" type="translate" values="31.50409417093471;0;31.50409417093471"/>
        </path>
        <path d="M1997.43 195.5h28.431a24.5 24.5 0 0 1 0 50h-28.43a24.5 24.5 0 0 1 0-50">
          <animateTransform attributeName="transform" begin="-6.666666666666666s" dur="5s" keyTimes="0;1" repeatCount="indefinite" type="translate" values="0;-1523.2600751097145"/>
          <animate attributeName="opacity" begin="-6.666666666666666s" dur="5s" keyTimes="0;0.3;1" repeatCount="indefinite" values="1;1;0"/>
        </path>
        <path fill="#fff" d="M2220 244.5H892.442a24.5 24.5 0 0 0 0 50H2220">
          <animateTransform attributeName="transform" begin="-8.333333333333334s" calcMode="spline" dur="5s" keySplines="0.5 0 0.5 1;0.5 0 0.5 1" keyTimes="0;0.5;1" repeatCount="indefinite" type="translate" values="-31.550265800758083;0;-31.550265800758083"/>
        </path>
        <path fill="#fff" d="M1000.334 244.5h36.225a24.5 24.5 0 0 1 0 50h-36.225a24.5 24.5 0 0 1 0-50">
          <animateTransform attributeName="transform" begin="-8.333333333333334s" dur="10s" keyTimes="0;1" repeatCount="indefinite" type="translate" values="0;0"/>
          <animate attributeName="opacity" begin="-8.333333333333334s" dur="10s" keyTimes="0;0.3;1" repeatCount="indefinite" values="1;1;0"/>
        </path>
        <path fill="#fff" d="M2220 293.5H911.998a24.5 24.5 0 0 1 0 50H2220">
          <animateTransform attributeName="transform" begin="-10s" calcMode="spline" dur="3.3333333333333335s" keySplines="0.5 0 0.5 1;0.5 0 0.5 1" keyTimes="0;0.5;1" repeatCount="indefinite" type="translate" values="36.53270125582655;0;36.53270125582655"/>
        </path>
        <path d="M2001.183 293.5h32.184a24.5 24.5 0 0 1 0 50h-32.184a24.5 24.5 0 0 1 0-50">
          <animateTransform attributeName="transform" begin="-10s" dur="3.3333333333333335s" keyTimes="0;1" repeatCount="indefinite" type="translate" values="0;-1833.7396796006672"/>
          <animate attributeName="opacity" begin="-10s" dur="3.3333333333333335s" keyTimes="0;0.3;1" repeatCount="indefinite" values="1;1;0"/>
        </path>
        <path fill="#fff" d="M2220 342.5H898.535a24.5 24.5 0 0 0 0 50H2220">
          <animateTransform attributeName="transform" begin="-11.666666666666668s" calcMode="spline" dur="5s" keySplines="0.5 0 0.5 1;0.5 0 0.5 1" keyTimes="0;0.5;1" repeatCount="indefinite" type="translate" values="-39.94276321500955;0;-39.94276321500955"/>
        </path>
        <path fill="#fff" d="M1029.956 342.5h37.914a24.5 24.5 0 0 1 0 50h-37.914a24.5 24.5 0 0 1 0-50">
          <animateTransform attributeName="transform" begin="-11.666666666666668s" dur="10s" keyTimes="0;1" repeatCount="indefinite" type="translate" values="0;0"/>
          <animate attributeName="opacity" begin="-11.666666666666668s" dur="10s" keyTimes="0;0.3;1" repeatCount="indefinite" values="1;1;0"/>
        </path>
        <path fill="#fff" d="M2220 391.5H945.22a24.5 24.5 0 0 1 0 50H2220">
          <animateTransform attributeName="transform" begin="-13.333333333333332s" calcMode="spline" dur="3.3333333333333335s" keySplines="0.5 0 0.5 1;0.5 0 0.5 1" keyTimes="0;0.5;1" repeatCount="indefinite" type="translate" values="47.09449964238216;0;47.09449964238216"/>
        </path>
        <path d="M1999.331 391.5h30.332a24.5 24.5 0 0 1 0 50h-30.332a24.5 24.5 0 0 1 0-50">
          <animateTransform attributeName="transform" begin="-13.333333333333332s" dur="10s" keyTimes="0;1" repeatCount="indefinite" type="translate" values="0;-1465.4474487678835"/>
          <animate attributeName="opacity" begin="-13.333333333333332s" dur="10s" keyTimes="0;0.3;1" repeatCount="indefinite" values="1;1;0"/>
        </path>
        <path fill="#fff" d="M2220 440.5H909.44a24.5 24.5 0 0 0 0 50H2220">
          <animateTransform attributeName="transform" begin="-15s" calcMode="spline" dur="10s" keySplines="0.5 0 0.5 1;0.5 0 0.5 1" keyTimes="0;0.5;1" repeatCount="indefinite" type="translate" values="-38.344922961811704;0;-38.344922961811704"/>
        </path>
        <path fill="#fff" d="M1036.735 440.5h29.32a24.5 24.5 0 0 1 0 50h-29.32a24.5 24.5 0 0 1 0-50">
          <animateTransform attributeName="transform" begin="-15s" dur="5s" keyTimes="0;1" repeatCount="indefinite" type="translate" values="0;0"/>
          <animate attributeName="opacity" begin="-15s" dur="5s" keyTimes="0;0.3;1" repeatCount="indefinite" values="1;1;0"/>
        </path>
        <path fill="#fff" d="M2220 489.5H966.127a24.5 24.5 0 0 1 0 50H2220">
          <animateTransform attributeName="transform" begin="-16.666666666666668s" calcMode="spline" dur="10s" keySplines="0.5 0 0.5 1;0.5 0 0.5 1" keyTimes="0;0.5;1" repeatCount="indefinite" type="translate" values="38.374445056835825;0;38.374445056835825"/>
        </path>
        <path d="M2005.676 489.5h36.676a24.5 24.5 0 0 1 0 50h-36.676a24.5 24.5 0 0 1 0-50">
          <animateTransform attributeName="transform" begin="-16.666666666666668s" dur="10s" keyTimes="0;1" repeatCount="indefinite" type="translate" values="0;-2149.365468440975"/>
          <animate attributeName="opacity" begin="-16.666666666666668s" dur="10s" keyTimes="0;0.3;1" repeatCount="indefinite" values="1;1;0"/>
        </path>
        <path fill="#fff" d="M2220 538.5H938.509a24.5 24.5 0 0 0 0 50H2220">
          <animateTransform attributeName="transform" begin="-18.333333333333336s" calcMode="spline" dur="10s" keySplines="0.5 0 0.5 1;0.5 0 0.5 1" keyTimes="0;0.5;1" repeatCount="indefinite" type="translate" values="-48.279214665595816;0;-48.279214665595816"/>
        </path>
        <path fill="#fff" d="M1029.889 538.5h12.5a24.5 24.5 0 0 1 0 50h-12.5a24.5 24.5 0 0 1 0-50">
          <animateTransform attributeName="transform" begin="-18.333333333333336s" dur="10s" keyTimes="0;1" repeatCount="indefinite" type="translate" values="0;0"/>
          <animate attributeName="opacity" begin="-18.333333333333336s" dur="10s" keyTimes="0;0.3;1" repeatCount="indefinite" values="1;1;0"/>
        </path>
        <path fill="#fff" d="M2220 587.5H977.643a24.5 24.5 0 0 1 0 50H2220">
          <animateTransform attributeName="transform" begin="-20s" calcMode="spline" dur="10s" keySplines="0.5 0 0.5 1;0.5 0 0.5 1" keyTimes="0;0.5;1" repeatCount="indefinite" type="translate" values="39.632349196725926;0;39.632349196725926"/>
        </path>
        <path d="M2008.378 587.5h39.378a24.5 24.5 0 0 1 0 50h-39.378a24.5 24.5 0 0 1 0-50">
          <animateTransform attributeName="transform" begin="-20s" dur="10s" keyTimes="0;1" repeatCount="indefinite" type="translate" values="0;-1833.909397023026"/>
          <animate attributeName="opacity" begin="-20s" dur="10s" keyTimes="0;0.3;1" repeatCount="indefinite" values="1;1;0"/>
        </path>
        <path fill="#fff" d="M2220 636.5H954.598a24.5 24.5 0 0 0 0 50H2220">
          <animateTransform attributeName="transform" begin="-21.666666666666664s" calcMode="spline" dur="3.3333333333333335s" keySplines="0.5 0 0.5 1;0.5 0 0.5 1" keyTimes="0;0.5;1" repeatCount="indefinite" type="translate" values="-44.217016955580036;0;-44.217016955580036"/>
        </path>
        <path fill="#fff" d="M1062.283 636.5h35.605a24.5 24.5 0 0 1 0 50h-35.605a24.5 24.5 0 0 1 0-50">
          <animateTransform attributeName="transform" begin="-21.666666666666664s" dur="5s" keyTimes="0;1" repeatCount="indefinite" type="translate" values="0;0"/>
          <animate attributeName="opacity" begin="-21.666666666666664s" dur="5s" keyTimes="0;0.3;1" repeatCount="indefinite" values="1;1;0"/>
        </path>
        <path fill="#fff" d="M2220 685.5H962.102a24.5 24.5 0 0 1 0 50H2220">
          <animateTransform attributeName="transform" begin="-23.333333333333336s" calcMode="spline" dur="10s" keySplines="0.5 0 0.5 1;0.5 0 0.5 1" keyTimes="0;0.5;1" repeatCount="indefinite" type="translate" values="48.472286527943524;0;48.472286527943524"/>
        </path>
        <path d="M1999.68 685.5h30.68a24.5 24.5 0 0 1 0 50h-30.68a24.5 24.5 0 0 1 0-50">
          <animateTransform attributeName="transform" begin="-23.333333333333336s" dur="5s" keyTimes="0;1" repeatCount="indefinite" type="translate" values="0;-2181.2438339761084"/>
          <animate attributeName="opacity" begin="-23.333333333333336s" dur="5s" keyTimes="0;0.3;1" repeatCount="indefinite" values="1;1;0"/>
        </path>
        <path fill="#fff" d="M2220 734.5H928.879a24.5 24.5 0 0 0 0 50H2220">
          <animateTransform attributeName="transform" begin="-25s" calcMode="spline" dur="10s" keySplines="0.5 0 0.5 1;0.5 0 0.5 1" keyTimes="0;0.5;1" repeatCount="indefinite" type="translate" values="-47.902214633873356;0;-47.902214633873356"/>
        </path>
        <path fill="#fff" d="M1046.268 734.5h35.336a24.5 24.5 0 0 1 0 50h-35.336a24.5 24.5 0 0 1 0-50">
          <animateTransform attributeName="transform" begin="-25s" dur="5s" keyTimes="0;1" repeatCount="indefinite" type="translate" values="0;0"/>
          <animate attributeName="opacity" begin="-25s" dur="5s" keyTimes="0;0.3;1" repeatCount="indefinite" values="1;1;0"/>
        </path>
        <path fill="#fff" d="M2220 783.5H946.354a24.5 24.5 0 0 1 0 50H2220">
          <animateTransform attributeName="transform" begin="-26.666666666666664s" calcMode="spline" dur="10s" keySplines="0.5 0 0.5 1;0.5 0 0.5 1" keyTimes="0;0.5;1" repeatCount="indefinite" type="translate" values="47.55450544104846;0;47.55450544104846"/>
        </path>
        <path d="M1981.407 783.5h12.408a24.5 24.5 0 0 1 0 50h-12.408a24.5 24.5 0 0 1 0-50">
          <animateTransform attributeName="transform" begin="-26.666666666666664s" dur="3.3333333333333335s" keyTimes="0;1" repeatCount="indefinite" type="translate" values="0;-2222.0890296953985"/>
          <animate attributeName="opacity" begin="-26.666666666666664s" dur="3.3333333333333335s" keyTimes="0;0.3;1" repeatCount="indefinite" values="1;1;0"/>
        </path>
        <path fill="#fff" d="M2220 832.5H912.386a24.5 24.5 0 0 0 0 50H2220">
          <animateTransform attributeName="transform" begin="-28.33333333333333s" calcMode="spline" dur="10s" keySplines="0.5 0 0.5 1;0.5 0 0.5 1" keyTimes="0;0.5;1" repeatCount="indefinite" type="translate" values="-42.96411461204218;0;-42.96411461204218"/>
        </path>
        <path fill="#fff" d="M1072.833 832.5h33.597a24.5 24.5 0 0 1 0 50h-33.597a24.5 24.5 0 0 1 0-50">
          <animateTransform attributeName="transform" begin="-28.33333333333333s" dur="3.3333333333333335s" keyTimes="0;1" repeatCount="indefinite" type="translate" values="0;0"/>
          <animate attributeName="opacity" begin="-28.33333333333333s" dur="3.3333333333333335s" keyTimes="0;0.3;1" repeatCount="indefinite" values="1;1;0"/>
        </path>
      </mask>
    </defs>
    <path fill="url(#a)" d="M0 0h1920v880H0z" mask="url(#b)"/>
  </g>
</svg>