<?xml version="1.0" standalone="no"?>
<!DOCTYPE svg PUBLIC "-//W3C//DTD SVG 20010904//EN"
 "http://www.w3.org/TR/2001/REC-SVG-20010904/DTD/svg10.dtd">
<svg version="1.0" xmlns="http://www.w3.org/2000/svg"
 width="256.000000pt" height="256.000000pt" viewBox="0 0 256.000000 256.000000"
 preserveAspectRatio="xMidYMid meet">
<metadata>
Created by potrace 1.14, written by Peter Selinger 2001-2017
</metadata>
<g transform="translate(0.000000,256.000000) scale(0.100000,-0.100000)"
fill="#000000" stroke="none">
<path d="M1158 2555 c-2 -2 -27 -6 -57 -10 -443 -56 -849 -377 -1012 -800 -17
-44 -32 -87 -34 -95 -2 -8 -8 -35 -15 -59 -26 -98 -37 -197 -35 -323 1 -73 5
-149 9 -168 3 -19 8 -46 10 -60 26 -163 118 -370 234 -527 197 -265 519 -456
842 -500 70 -9 290 -10 355 0 552 78 992 506 1086 1056 17 96 18 303 3 396
-19 117 -22 131 -56 230 -78 228 -239 456 -418 589 -30 22 -57 43 -60 46 -3 3
-36 24 -75 47 -208 121 -391 173 -632 178 -78 2 -143 2 -145 0z m257 -319
c130 -16 278 -70 406 -149 13 -8 9 -16 -28 -53 -23 -24 -43 -49 -43 -57 0 -7
-22 -34 -49 -61 l-48 -47 -49 8 c-27 5 -182 8 -344 8 -307 -2 -332 -5 -421
-50 l-29 -15 10 25 c26 69 3 155 -56 203 l-34 28 73 41 c121 67 240 106 361
119 34 4 62 7 63 8 5 5 129 -1 188 -8z m-883 -679 c-1 -272 7 -316 64 -367 33
-28 37 -37 40 -88 3 -69 20 -155 34 -183 10 -18 1 -31 -80 -114 -93 -94 -113
-104 -126 -62 -4 12 -10 24 -14 27 -29 20 -111 237 -127 337 -16 99 -7 335 16
395 5 13 9 28 10 33 6 49 52 155 108 248 l35 57 20 -25 c19 -24 20 -40 20
-258z m1572 245 c112 -193 149 -317 150 -512 1 -134 -4 -182 -24 -263 -20 -75
-60 -173 -95 -232 -19 -32 -35 -60 -35 -62 0 -12 -68 -93 -127 -151 -225 -222
-522 -321 -828 -276 -148 22 -263 66 -397 150 l-37 24 63 62 c98 98 87 94 143
55 111 -79 243 -118 387 -113 117 4 172 17 273 67 205 101 347 317 356 539 2
59 5 67 36 95 65 57 70 80 71 358 0 219 3 252 18 272 17 24 26 22 46 -13z"/>
</g>
</svg>
